<svg width="18" height="21" viewBox="0 0 18 21" fill="none" xmlns="http://www.w3.org/2000/svg">
<path d="M14.6118 10.9143C14.6327 9.32995 15.5042 7.83084 16.8867 7.00102C16.0145 5.78492 14.5537 5.01388 13.0338 4.96745C11.4127 4.80133 9.84119 5.91449 9.01512 5.91449C8.17307 5.91449 6.90121 4.98395 5.53163 5.01146C3.74644 5.06777 2.0822 6.05867 1.21366 7.58242C-0.653337 10.7382 0.739278 15.3762 2.52771 17.9272C3.4225 19.1763 4.46825 20.5716 5.8366 20.5221C7.17561 20.4679 7.6757 19.6885 9.292 19.6885C10.8933 19.6885 11.3625 20.5221 12.7586 20.4906C14.1954 20.4679 15.1007 19.236 15.9641 17.975C16.607 17.085 17.1017 16.1013 17.4299 15.0604C15.7414 14.3631 14.6138 12.7042 14.6118 10.9143Z" fill="#1C1C1C"/>
<path d="M11.9748 3.28984C12.7582 2.37167 13.1441 1.19151 13.0507 0C11.8538 0.12273 10.7482 0.681205 9.9542 1.56415C9.17778 2.42683 8.77372 3.58622 8.85011 4.73219C10.0474 4.74423 11.2245 4.20089 11.9748 3.28984Z" fill="#1C1C1C"/>
</svg>
