<svg width="87" height="32" viewBox="0 0 87 32" fill="none" xmlns="http://www.w3.org/2000/svg">
<g clip-path="url(#clip0_995_34885)">
<path d="M17.5683 29.3778L18.6772 28.2753V3.87431L17.5626 2.76641H3.72435L2.61571 3.86877V28.2753L3.72435 29.3778H17.5683ZM8.63889 28.0471H12.654V26.7165H8.63889V28.0471ZM2.61571 32.0388L-0.0613707 29.4494C-0.0613707 20.5116 -0.0626757 11.7043 -0.0613707 2.76641L2.61571 0.105225H18.6656L21.354 2.76641C21.3524 11.7043 21.354 20.4398 21.354 29.3778L18.6772 32.0388H2.61571Z" fill="#19B423"/>
<path d="M56.5416 8.25828C54.6552 7.70277 51.0934 7.44937 50.2755 10.7513V8.2677H46.5101V23.0802H50.2755V14.9816C50.2755 10.3078 54.3419 10.9368 56.5416 11.445V8.25828ZM35.4027 7.87964C37.098 7.87964 38.7633 8.24894 39.84 9.55384V8.2677H43.6056V23.0802H39.84V21.3836C38.9013 23.1249 37.1525 23.4381 35.4861 23.4381C31.0898 23.4381 28.0458 20.0863 28.0458 15.6393C28.0458 11.3855 31.0577 7.87964 35.4027 7.87964ZM36.1872 20.3964C38.9285 20.3964 40.2939 18.0423 40.2939 15.6243C40.2939 13.1956 38.9208 10.9209 36.1872 10.9209C30.2091 10.9209 30.2243 20.3964 36.1872 20.3964ZM76.9097 12.5788C76.8912 11.5052 78.4142 10.9957 79.9247 10.9957C82.141 10.9957 82.9847 11.7065 83.0962 12.5896L86.5501 12.5816C86.1934 8.95605 82.7465 7.93534 79.9247 7.96163C75.443 8.00383 73.5348 10.4626 73.6612 13.1532C73.7999 16.1111 76.2792 16.9647 79.649 17.1474C81.7838 17.2633 83.2863 17.3582 83.2885 18.4708C83.2915 20.1 81.5685 20.4122 79.9247 20.4122C78.6214 20.4122 77.4504 19.912 77.0558 18.7198H73.5509C73.8316 21.9304 76.3848 23.4374 79.8221 23.4374C83.5104 23.4374 86.8598 22.2853 86.9363 18.6661C87.0237 14.5442 83.4556 14.2882 79.649 14.1106C78.3481 14.05 76.93 13.7865 76.9097 12.5788ZM56.5414 15.6699C56.5414 26.2459 72.1519 25.8064 72.1519 15.6699C72.1519 5.39298 56.5414 5.37629 56.5414 15.6699ZM68.5038 15.6794C68.5038 18.0846 67.0581 20.4122 64.3368 20.4122C61.6094 20.4122 60.1599 18.0921 60.1599 15.6794C60.1599 13.2378 61.563 10.9368 64.3368 10.9368C67.1032 10.9368 68.5038 13.2474 68.5038 15.6794Z" fill="black"/>
</g>
<defs>
<clipPath id="clip0_995_34885">
<rect width="87" height="32" fill="white"/>
</clipPath>
</defs>
</svg>
